<svg id="visual" viewBox="0 0 3840 2160" width="3840" height="2160" xmlns="http://www.w3.org/2000/svg" xmlns:xlink="http://www.w3.org/1999/xlink" version="1.1"><rect x="0" y="0" width="3840" height="2160" fill="#001220"></rect><path d="M0 1419L91.5 1412.3C183 1405.7 366 1392.3 548.8 1406.7C731.7 1421 914.3 1463 1097.2 1475.5C1280 1488 1463 1471 1645.8 1478C1828.7 1485 2011.3 1516 2194.2 1497C2377 1478 2560 1409 2742.8 1371.5C2925.7 1334 3108.3 1328 3291.2 1347.3C3474 1366.7 3657 1411.3 3748.5 1433.7L3840 1456L3840 2161L3748.5 2161C3657 2161 3474 2161 3291.2 2161C3108.3 2161 2925.7 2161 2742.8 2161C2560 2161 2377 2161 2194.2 2161C2011.3 2161 1828.7 2161 1645.8 2161C1463 2161 1280 2161 1097.2 2161C914.3 2161 731.7 2161 548.8 2161C366 2161 183 2161 91.5 2161L0 2161Z" fill="#fa7268"></path><path d="M0 1649L91.5 1647.3C183 1645.7 366 1642.3 548.8 1621.2C731.7 1600 914.3 1561 1097.2 1570.7C1280 1580.3 1463 1638.7 1645.8 1629.3C1828.7 1620 2011.3 1543 2194.2 1525.8C2377 1508.7 2560 1551.3 2742.8 1557.7C2925.7 1564 3108.3 1534 3291.2 1544C3474 1554 3657 1604 3748.5 1629L3840 1654L3840 2161L3748.5 2161C3657 2161 3474 2161 3291.2 2161C3108.3 2161 2925.7 2161 2742.8 2161C2560 2161 2377 2161 2194.2 2161C2011.3 2161 1828.7 2161 1645.8 2161C1463 2161 1280 2161 1097.2 2161C914.3 2161 731.7 2161 548.8 2161C366 2161 183 2161 91.5 2161L0 2161Z" fill="#ef5f67"></path><path d="M0 1835L91.5 1813C183 1791 366 1747 548.8 1730.3C731.7 1713.7 914.3 1724.3 1097.2 1732.5C1280 1740.7 1463 1746.3 1645.8 1730.5C1828.7 1714.7 2011.3 1677.3 2194.2 1661C2377 1644.7 2560 1649.3 2742.8 1677.7C2925.7 1706 3108.3 1758 3291.2 1767.5C3474 1777 3657 1744 3748.5 1727.5L3840 1711L3840 2161L3748.5 2161C3657 2161 3474 2161 3291.2 2161C3108.3 2161 2925.7 2161 2742.8 2161C2560 2161 2377 2161 2194.2 2161C2011.3 2161 1828.7 2161 1645.8 2161C1463 2161 1280 2161 1097.2 2161C914.3 2161 731.7 2161 548.8 2161C366 2161 183 2161 91.5 2161L0 2161Z" fill="#e34c67"></path><path d="M0 1872L91.5 1849.2C183 1826.3 366 1780.7 548.8 1776C731.7 1771.3 914.3 1807.7 1097.2 1820.7C1280 1833.7 1463 1823.3 1645.8 1808.5C1828.7 1793.7 2011.3 1774.3 2194.2 1788.7C2377 1803 2560 1851 2742.8 1863C2925.7 1875 3108.3 1851 3291.2 1847.8C3474 1844.7 3657 1862.3 3748.5 1871.2L3840 1880L3840 2161L3748.5 2161C3657 2161 3474 2161 3291.2 2161C3108.3 2161 2925.7 2161 2742.8 2161C2560 2161 2377 2161 2194.2 2161C2011.3 2161 1828.7 2161 1645.8 2161C1463 2161 1280 2161 1097.2 2161C914.3 2161 731.7 2161 548.8 2161C366 2161 183 2161 91.5 2161L0 2161Z" fill="#d53867"></path><path d="M0 2036L91.5 2017.5C183 1999 366 1962 548.8 1937.7C731.7 1913.3 914.3 1901.7 1097.2 1915.8C1280 1930 1463 1970 1645.8 1994.2C1828.7 2018.3 2011.3 2026.7 2194.2 2028.8C2377 2031 2560 2027 2742.8 2031.3C2925.7 2035.7 3108.3 2048.3 3291.2 2037.3C3474 2026.3 3657 1991.7 3748.5 1974.3L3840 1957L3840 2161L3748.5 2161C3657 2161 3474 2161 3291.2 2161C3108.3 2161 2925.7 2161 2742.8 2161C2560 2161 2377 2161 2194.2 2161C2011.3 2161 1828.7 2161 1645.8 2161C1463 2161 1280 2161 1097.2 2161C914.3 2161 731.7 2161 548.8 2161C366 2161 183 2161 91.5 2161L0 2161Z" fill="#c62368"></path></svg>